# xmcd
#
# Track frame offsets:
#	150
#	14886
#	34501
#	50456
#	70393
#	85654
#	97771
#	113968
#	128050
#	144457
#	161254
#	173883
#
# Disc length: 2511 seconds
#
# Revision: 0
# Processed by: cddbd v1.5.2PL0 Copyright (c) Steve Scherf et al.
# Submitted via: MusicManager 7.3.0.0 
#
DISCID=9709cd0c
DTITLE=AMANDA WILSON - SMALL TOWN GIRL
DYEAR=2006
DGENRE=country
TTITLE0=I GET CARRIED AWAY
TTITLE1=SMALL TOWN GIRL
TTITLE2=IF IT WERE ONLY THAT EASY
TTITLE3=THE CHANCE
TTITLE4=HANDS ON YOU
TTITLE5=WHAT'S WRONG WITH YOU
TTITLE6=HEAVEN ON EARTH DOWN HERE
TTITLE7=THIS TOWN
TTITLE8=HURT'S DON'T IT
TTITLE9=SOMETHING
TTITLE10=WHO WILL YHE NEXT FOOL BE
TTITLE11=THE FIRE
EXTD=
EXTT0=
EXTT1=
EXTT2=
EXTT3=
EXTT4=
EXTT5=
EXTT6=
EXTT7=
EXTT8=
EXTT9=
EXTT10=
EXTT11=
PLAYORDER=
